<svg xmlns="http://www.w3.org/2000/svg" width="2048.000000pt" height="424.000000pt" viewBox="0 0 2048.000000 424.000000" fill-rule="evenodd">
<g transform="translate(0.000000,424.000000) scale(0.100000,-0.100000)"
fill="#FFFFFF" stroke="none">
<path d="M1437 3862 c-16 -17 -17 -107 -17 -1098 0 -693 4 -1095 11 -1124 5
-25 23 -63 38 -85 16 -22 35 -56 43 -75 14 -32 63 -82 166 -167 42 -35 147
-79 227 -95 80 -15 79 -11 77 -228 -1 -112 -6 -198 -12 -210 -12 -22 -44 -26
-87 -9 -15 6 -73 19 -128 29 -79 14 -121 29 -200 70 -55 28 -125 69 -156 90
-58 40 -269 256 -269 276 0 6 -16 33 -35 60 -20 27 -40 67 -46 89 -6 22 -24
69 -39 105 -46 106 -51 177 -50 770 1 300 1 555 1 568 -1 14 -10 27 -25 33
-22 10 -30 7 -75 -32 -27 -24 -62 -64 -76 -90 -13 -25 -32 -52 -41 -60 -8 -7
-26 -34 -39 -59 -13 -25 -30 -52 -39 -59 -8 -7 -25 -38 -36 -69 -12 -32 -32
-75 -45 -97 -13 -22 -29 -69 -36 -105 -6 -36 -20 -87 -31 -113 -31 -81 -39
-136 -44 -292 -4 -178 9 -331 37 -412 11 -32 28 -93 39 -136 11 -42 30 -96 44
-120 13 -23 29 -59 36 -79 6 -21 27 -56 46 -79 19 -22 34 -47 34 -55 0 -7 13
-28 29 -46 15 -18 39 -51 53 -73 57 -91 246 -266 363 -335 23 -14 50 -33 60
-44 10 -10 39 -27 64 -38 25 -10 62 -30 81 -43 19 -13 64 -31 99 -40 36 -9 81
-25 102 -35 37 -19 97 -31 249 -50 215 -26 528 0 670 55 47 18 101 36 120 40
19 3 58 22 85 40 28 18 61 36 75 40 14 4 36 18 50 30 14 13 49 35 78 49 28 15
52 30 52 35 0 5 17 20 38 32 43 27 196 178 232 229 13 19 30 39 37 43 7 4 25
31 39 60 15 29 34 61 44 72 31 36 100 174 129 258 16 45 35 100 44 122 22 59
46 310 42 450 -5 198 -22 318 -59 414 -19 47 -37 102 -41 121 -4 19 -17 51
-30 70 -13 19 -33 57 -45 84 -11 27 -32 63 -46 80 -14 17 -35 45 -47 63 -94
137 -277 321 -362 365 -17 9 -39 26 -50 38 -11 12 -42 32 -70 45 -27 12 -56
29 -64 38 -7 9 -43 26 -79 37 -36 11 -80 30 -98 41 -19 11 -87 31 -151 45 -65
13 -143 31 -173 40 -43 12 -97 14 -253 12 l-198 -3 -39 41 c-23 25 -43 60 -50
85 -6 24 -24 67 -39 94 -15 28 -33 71 -40 97 -11 47 -71 167 -99 201 -20 22
-55 22 -75 -1z m708 -1002 c39 -6 102 -21 140 -34 39 -14 95 -32 126 -40 31
-9 62 -23 70 -32 7 -9 37 -27 67 -40 68 -30 101 -56 220 -175 98 -98 161 -184
186 -257 8 -22 26 -57 40 -79 35 -53 70 -251 70 -398 0 -123 -31 -298 -66
-375 -12 -25 -31 -69 -44 -99 -13 -29 -34 -65 -47 -80 -14 -14 -32 -39 -40
-56 -20 -40 -180 -197 -237 -233 -25 -16 -51 -36 -59 -45 -7 -9 -31 -22 -54
-28 -22 -6 -57 -22 -77 -35 -21 -14 -84 -37 -140 -51 l-103 -25 -20 21 c-19
18 -20 34 -22 193 -2 226 10 255 108 274 36 6 60 22 167 112 55 47 127 161
159 253 39 113 38 240 -4 372 -30 95 -98 200 -157 244 -18 13 -36 30 -41 39
-5 8 -39 30 -75 48 -37 19 -83 42 -102 52 -30 16 -58 19 -200 19 l-165 0 -78
-42 c-42 -22 -95 -57 -117 -77 -42 -38 -64 -44 -77 -23 -4 6 -6 116 -4 242 2
178 6 235 17 252 9 14 36 29 72 39 31 9 71 23 87 32 67 34 268 50 400 32z m18
-700 c64 -41 114 -88 131 -123 8 -18 29 -50 45 -71 38 -48 55 -98 54 -161 -2
-86 -30 -146 -108 -227 -82 -86 -124 -104 -270 -114 -87 -6 -92 -5 -152 25
-38 20 -69 44 -82 64 -11 18 -35 40 -55 51 -45 24 -66 69 -66 140 0 31 -5 76
-12 101 -11 40 -10 50 7 83 28 53 95 132 127 148 15 8 44 32 64 54 44 48 87
60 199 56 65 -1 87 -6 118 -26z"/>
<path d="M4365 2570 c-46 -18 -45 -6 -46 -634 -1 -662 -3 -639 63 -651 18 -3
201 -5 405 -3 363 3 373 4 393 24 31 31 37 93 12 124 l-20 25 -322 2 c-234 1
-325 5 -335 13 -13 11 -15 90 -15 540 l0 529 -26 20 c-27 21 -73 26 -109 11z"/>
<path d="M5483 2566 c-19 -9 -35 -25 -38 -38 -3 -13 -4 -288 -3 -611 l3 -589
28 -24 c36 -30 98 -33 126 -5 11 11 22 39 26 63 3 24 5 298 3 610 -3 633 1
595 -74 604 -22 2 -53 -2 -71 -10z"/>
<path d="M6075 2557 l-27 -22 1 -600 c0 -571 1 -601 19 -625 15 -19 30 -26 64
-28 40 -3 48 1 72 28 14 17 26 41 27 53 0 12 1 190 0 395 0 317 2 374 15 379
21 8 42 -14 74 -76 64 -128 87 -168 118 -210 17 -24 32 -49 32 -55 0 -6 18
-37 40 -70 22 -32 40 -64 40 -71 0 -7 15 -32 33 -56 18 -24 41 -63 52 -87 22
-51 48 -72 90 -72 40 0 72 23 80 59 3 16 24 53 46 82 21 29 39 58 39 64 0 6
20 42 45 79 25 38 45 73 45 79 0 6 12 26 28 46 26 35 48 73 118 213 31 63 64
96 83 84 5 -3 7 -175 6 -383 -1 -208 0 -390 3 -405 12 -74 112 -108 149 -51
17 25 18 70 18 631 l0 604 -25 20 c-49 40 -120 6 -162 -77 -12 -22 -36 -60
-54 -84 -19 -24 -34 -49 -34 -55 0 -7 -20 -43 -45 -80 -25 -38 -45 -74 -45
-81 0 -7 -13 -28 -29 -48 -15 -20 -34 -51 -41 -69 -7 -18 -23 -46 -35 -63 -12
-16 -32 -50 -45 -75 -12 -25 -33 -60 -47 -78 -13 -18 -31 -53 -40 -77 -27 -80
-85 -72 -123 17 -12 29 -35 71 -50 93 -40 58 -69 107 -175 294 -16 29 -40 67
-52 84 -13 18 -36 60 -52 93 -16 34 -34 65 -40 68 -5 4 -24 33 -42 66 -46 87
-119 115 -174 67z"/>
<path d="M7883 2573 c-54 -10 -53 0 -53 -631 0 -654 -1 -645 64 -658 50 -9 92
10 105 48 14 39 15 1166 2 1201 -6 14 -23 29 -42 36 -33 11 -37 11 -76 4z"/>
<path d="M8295 2573 c-37 -9 -55 -34 -55 -75 0 -87 28 -98 240 -98 112 0 161
-4 174 -13 17 -12 18 -47 19 -534 l2 -521 25 -27 c20 -22 32 -25 69 -23 39 3
49 8 69 38 l23 34 -2 510 c-1 480 0 511 17 523 13 10 65 13 195 13 209 0 218
4 226 87 5 45 3 52 -22 71 -28 22 -30 22 -494 21 -256 -1 -475 -4 -486 -6z"/>
</g>
<g transform="translate(0.000000,424.000000) scale(0.100000,-0.100000)"
fill="#B0121B" stroke="none">
<path d="M19309 2586 c-2 -2 -40 -9 -84 -15 -71 -10 -88 -17 -160 -66 -82 -56
-100 -76 -155 -180 -29 -56 -31 -66 -28 -140 3 -72 7 -85 40 -135 78 -119 202
-200 334 -220 97 -15 300 -82 329 -110 13 -12 29 -35 35 -51 11 -25 9 -33 -16
-73 -16 -25 -39 -50 -53 -56 -44 -20 -161 -29 -255 -19 -115 12 -149 22 -192
54 -51 39 -99 56 -127 46 -26 -10 -83 -71 -99 -106 -18 -39 -1 -91 40 -125 20
-17 48 -33 62 -37 14 -3 61 -21 104 -41 77 -34 84 -35 235 -40 194 -6 287 7
350 48 24 17 49 30 55 30 24 0 114 99 149 162 34 60 37 73 37 142 0 83 -12
121 -61 198 -39 61 -167 142 -248 158 -31 6 -96 24 -146 40 -49 15 -116 33
-147 40 -50 10 -62 17 -98 60 -22 26 -40 53 -40 60 0 26 44 89 69 98 113 41
167 52 201 42 19 -6 73 -17 120 -26 54 -10 98 -25 122 -41 48 -32 68 -25 119
42 43 57 58 110 40 143 -22 41 -138 88 -256 106 -101 15 -266 22 -276 12z"/>
<path d="M9532 2565 c-23 -10 -32 -22 -37 -47 -3 -18 -5 -293 -3 -610 l3 -576
25 -27 25 -26 385 3 c369 3 387 4 425 24 22 12 63 29 92 38 62 21 142 102 179
181 28 58 32 155 11 226 -16 50 -83 145 -127 177 -40 30 -38 52 9 106 29 33
43 61 51 103 14 65 7 191 -12 226 -24 45 -84 109 -120 128 -20 10 -53 30 -73
43 -45 31 -88 34 -491 40 -241 3 -317 1 -342 -9z m657 -245 c25 -6 59 -26 78
-45 28 -28 33 -40 33 -78 0 -41 -4 -49 -40 -80 -22 -18 -59 -40 -82 -47 -44
-13 -359 -22 -376 -11 -22 15 -29 53 -27 146 2 122 1 114 24 123 32 12 342 6
390 -8z m68 -505 c32 -10 113 -112 113 -142 0 -27 -61 -118 -88 -132 -25 -13
-149 -23 -321 -26 -199 -3 -189 -12 -186 165 1 100 5 134 16 141 16 11 430 5
466 -6z"/>
<path d="M10974 2569 c-46 -17 -46 -4 -44 -629 0 -331 5 -601 10 -615 13 -34
40 -45 113 -45 80 0 121 14 136 46 6 15 11 80 11 159 0 176 -2 173 141 168 57
-1 111 -3 119 -3 16 0 109 -109 134 -157 8 -16 24 -37 36 -48 12 -11 31 -37
41 -57 10 -20 40 -53 65 -73 46 -35 48 -35 145 -35 94 0 99 1 115 25 23 35 5
81 -66 163 -31 37 -65 83 -75 102 -10 19 -31 50 -46 68 -44 50 -39 75 24 115
38 24 67 55 99 103 66 101 67 104 74 205 8 119 -7 210 -41 254 -14 19 -25 38
-25 43 0 5 -24 34 -52 64 -62 64 -188 132 -263 142 -71 10 -627 14 -651 5z
m642 -271 c17 -9 49 -45 72 -79 36 -53 42 -70 42 -114 0 -36 -6 -60 -19 -76
-10 -13 -25 -38 -34 -56 -25 -48 -134 -82 -302 -93 l-130 -9 -22 25 c-22 24
-23 33 -23 206 0 158 2 184 17 201 17 17 30 19 193 15 139 -3 181 -7 206 -20z"/>
<path d="M12325 2562 c-15 -7 -26 -24 -30 -45 -3 -17 -5 -292 -3 -609 l3 -576
24 -26 24 -26 433 0 c296 0 441 4 457 11 42 19 67 110 49 174 -16 60 -39 64
-381 64 -264 1 -308 3 -318 17 -16 22 -12 236 6 258 12 14 45 16 268 16 205 0
260 3 283 15 61 32 64 153 5 212 l-32 32 -259 0 c-225 0 -260 2 -270 15 -16
23 -16 200 1 222 11 16 37 18 300 16 183 -1 295 3 307 9 24 13 57 84 58 122 0
41 -25 94 -49 102 -11 3 -207 7 -436 8 -319 2 -421 -1 -440 -11z"/>
<path d="M13992 2571 c-44 -11 -69 -36 -83 -80 -6 -20 -24 -59 -41 -88 -16
-28 -35 -74 -43 -101 -8 -27 -25 -61 -36 -76 -12 -15 -30 -55 -40 -88 -11 -33
-29 -73 -40 -90 -12 -16 -29 -55 -39 -86 -9 -31 -29 -74 -43 -96 -15 -21 -32
-57 -38 -80 -6 -22 -23 -61 -39 -86 -15 -25 -35 -68 -44 -96 -9 -28 -29 -71
-45 -96 -35 -55 -63 -139 -59 -175 2 -17 12 -32 28 -40 33 -17 178 -16 209 1
15 8 47 60 90 147 51 103 71 135 89 139 13 3 141 3 285 0 l262 -5 15 -33 c63
-141 118 -238 140 -249 32 -16 178 -16 210 0 14 7 26 23 28 35 5 32 -34 143
-64 183 -14 19 -32 59 -40 89 -9 30 -27 72 -41 92 -14 21 -34 64 -45 95 -10
32 -29 73 -42 93 -14 19 -30 55 -36 80 -6 25 -24 65 -40 90 -15 25 -35 70 -44
101 -8 30 -25 64 -36 74 -11 10 -29 48 -40 85 -11 37 -29 79 -41 94 -11 14
-28 49 -37 77 -24 73 -50 90 -148 94 -43 3 -94 0 -112 -4z m123 -394 c8 -13
22 -49 30 -79 8 -31 30 -84 49 -119 43 -79 63 -153 47 -173 -9 -10 -45 -14
-154 -14 -156 0 -173 2 -181 23 -7 20 36 144 68 191 14 21 32 67 40 102 8 35
20 70 26 78 19 22 58 17 75 -9z"/>
<path d="M15002 2573 c-53 -11 -53 -1 -50 -651 3 -562 4 -602 21 -619 25 -25
187 -32 221 -9 37 24 50 77 42 178 -7 111 2 136 86 223 92 95 86 96 230 -74
122 -144 194 -225 256 -288 l53 -53 110 0 c61 0 119 5 130 10 40 22 10 96 -71
180 -50 51 -96 108 -173 212 -20 29 -45 60 -55 69 -9 10 -39 45 -67 79 -27 35
-65 78 -82 97 -19 19 -33 44 -33 58 0 34 81 125 395 446 42 43 75 85 75 96 0
40 -30 53 -126 53 -49 0 -105 -5 -124 -10 -27 -7 -81 -55 -217 -192 -100 -101
-210 -216 -245 -257 -73 -85 -108 -114 -129 -106 -13 5 -14 41 -11 253 l4 248
-25 30 c-24 27 -30 29 -109 31 -45 0 -93 -1 -106 -4z"/>
<path d="M16376 2565 c-17 -5 -35 -20 -42 -32 -7 -16 -10 -200 -10 -607 l1
-586 28 -27 27 -28 434 -3 c515 -3 479 -12 484 115 3 67 1 82 -16 103 l-20 25
-313 3 c-261 2 -316 5 -330 18 -13 12 -16 35 -15 129 1 79 5 118 14 127 10 10
80 14 282 18 321 6 305 0 305 118 0 92 -16 126 -67 136 -18 3 -138 6 -266 6
-201 -1 -237 1 -252 15 -14 13 -17 33 -17 111 0 136 -21 128 343 128 289 1
294 1 316 23 16 17 23 37 26 83 5 70 -11 118 -43 126 -41 10 -837 9 -869 -1z"/>
<path d="M17644 2568 c-21 -5 -35 -17 -43 -36 -8 -20 -11 -188 -9 -616 l3
-588 28 -24 c25 -21 38 -24 108 -24 72 0 82 3 104 25 27 26 28 31 29 207 1 73
5 111 14 120 19 19 229 29 262 12 38 -19 78 -61 99 -103 11 -20 27 -43 36 -51
9 -7 23 -27 32 -44 15 -30 63 -91 110 -142 21 -22 29 -24 123 -24 108 0 140 9
140 40 0 33 -38 108 -69 135 -16 15 -35 41 -42 58 -7 18 -30 52 -50 77 -71 85
-73 127 -9 160 22 11 45 30 51 43 6 12 27 38 46 58 28 30 39 54 59 134 30 124
30 138 -3 260 -26 93 -32 104 -87 162 -69 74 -182 139 -266 153 -71 12 -625
19 -666 8z m610 -258 c27 -6 56 -25 89 -58 47 -47 49 -52 54 -114 3 -37 1 -80
-6 -100 -33 -100 -168 -158 -371 -158 -165 0 -155 -14 -156 217 -2 157 1 191
14 206 13 15 35 17 176 17 89 0 179 -5 200 -10z"/>
<path d="M1924 2179 c-28 -6 -54 -23 -78 -49 -20 -22 -49 -46 -64 -54 -32 -16
-99 -95 -127 -148 -17 -33 -18 -43 -7 -83 7 -25 12 -70 12 -101 0 -71 21 -116
66 -140 20 -11 44 -33 55 -51 13 -20 44 -44 82 -64 60 -30 65 -31 152 -25 146
10 188 28 270 114 78 81 106 141 108 227 1 63 -16 113 -54 161 -16 21 -37 53
-45 71 -17 35 -67 82 -131 123 -31 20 -53 25 -118 26 -44 2 -99 -2 -121 -7z
m273 -154 c3 -9 3 -19 -1 -22 -8 -9 -37 18 -30 28 8 14 24 11 31 -6z"/>
</g>
</svg>